<svg width="63" height="25" viewBox="0 0 63 25" fill="none" xmlns="http://www.w3.org/2000/svg">
<g clip-path="url(#clip0_20_22)">
<path d="M9.875 20.75C9.875 21.1208 9.76503 21.4834 9.559 21.7917C9.35298 22.1 9.06014 22.3404 8.71753 22.4823C8.37492 22.6242 7.99792 22.6613 7.6342 22.589C7.27049 22.5166 6.9364 22.338 6.67417 22.0758C6.41195 21.8136 6.23337 21.4795 6.16103 21.1158C6.08868 20.7521 6.12581 20.3751 6.26773 20.0325C6.40964 19.6899 6.64996 19.397 6.95831 19.191C7.26665 18.985 7.62916 18.875 8 18.875C8.49728 18.875 8.97419 19.0725 9.32582 19.4242C9.67745 19.7758 9.875 20.2527 9.875 20.75ZM17.75 18.875C17.3792 18.875 17.0166 18.985 16.7083 19.191C16.4 19.397 16.1596 19.6899 16.0177 20.0325C15.8758 20.3751 15.8387 20.7521 15.911 21.1158C15.9834 21.4795 16.162 21.8136 16.4242 22.0758C16.6864 22.338 17.0205 22.5166 17.3842 22.589C17.7479 22.6613 18.1249 22.6242 18.4675 22.4823C18.8101 22.3404 19.103 22.1 19.309 21.7917C19.515 21.4834 19.625 21.1208 19.625 20.75C19.625 20.2527 19.4275 19.7758 19.0758 19.4242C18.7242 19.0725 18.2473 18.875 17.75 18.875ZM22.5753 7.58094L20.0169 15.8966C19.8535 16.4343 19.5211 16.9051 19.069 17.239C18.6169 17.5729 18.0692 17.7521 17.5072 17.75H8.27469C7.7046 17.7482 7.15046 17.5616 6.6953 17.2183C6.24015 16.8751 5.90848 16.3936 5.75 15.8459L2.54469 4.625H1.625C1.32663 4.625 1.04048 4.50647 0.829505 4.2955C0.618526 4.08452 0.5 3.79837 0.5 3.5C0.5 3.20163 0.618526 2.91548 0.829505 2.7045C1.04048 2.49353 1.32663 2.375 1.625 2.375H2.82687C3.23407 2.37626 3.62988 2.50951 3.95493 2.75478C4.27998 3.00004 4.51674 3.34409 4.62969 3.73531L5.31312 6.125H21.5C21.6761 6.12499 21.8497 6.1663 22.0069 6.24561C22.164 6.32492 22.3004 6.44001 22.405 6.58164C22.5096 6.72326 22.5795 6.88746 22.6091 7.06102C22.6387 7.23458 22.6271 7.41266 22.5753 7.58094ZM19.9766 8.375H5.95531L7.91375 15.2281C7.93617 15.3065 7.98354 15.3755 8.04867 15.4245C8.1138 15.4736 8.19315 15.5001 8.27469 15.5H17.5072C17.5875 15.5002 17.6656 15.4746 17.7303 15.427C17.7949 15.3794 17.8426 15.3123 17.8662 15.2356L19.9766 8.375Z" fill="black"/>
</g>
<path d="M50.5 2.375C48.4975 2.375 46.5399 2.96882 44.8749 4.08137C43.2098 5.19392 41.9121 6.77523 41.1457 8.62533C40.3794 10.4754 40.1789 12.5112 40.5696 14.4753C40.9602 16.4393 41.9245 18.2435 43.3405 19.6595C44.7566 21.0755 46.5607 22.0398 48.5247 22.4305C50.4888 22.8211 52.5246 22.6206 54.3747 21.8543C56.2248 21.0879 57.8061 19.7902 58.9186 18.1251C60.0312 16.4601 60.625 14.5025 60.625 12.5C60.622 9.8156 59.5543 7.24199 57.6562 5.34383C55.758 3.44567 53.1844 2.37798 50.5 2.375ZM45.9597 18.9284C46.4819 18.2143 47.1653 17.6335 47.9542 17.2331C48.7431 16.8327 49.6153 16.624 50.5 16.624C51.3847 16.624 52.2569 16.8327 53.0458 17.2331C53.8347 17.6335 54.5181 18.2143 55.0403 18.9284C53.7134 19.8695 52.1268 20.375 50.5 20.375C48.8732 20.375 47.2867 19.8695 45.9597 18.9284ZM47.875 11.75C47.875 11.2308 48.029 10.7233 48.3174 10.2916C48.6058 9.85995 49.0158 9.5235 49.4955 9.32482C49.9751 9.12614 50.5029 9.07415 51.0121 9.17544C51.5213 9.27672 51.989 9.52673 52.3562 9.89384C52.7233 10.261 52.9733 10.7287 53.0746 11.2379C53.1759 11.7471 53.1239 12.2749 52.9252 12.7545C52.7265 13.2342 52.3901 13.6442 51.9584 13.9326C51.5267 14.221 51.0192 14.375 50.5 14.375C49.8038 14.375 49.1361 14.0984 48.6438 13.6062C48.1516 13.1139 47.875 12.4462 47.875 11.75ZM56.6875 17.3694C55.9583 16.4419 55.0289 15.6914 53.9688 15.1737C54.6444 14.4896 55.1026 13.6208 55.2858 12.6769C55.4689 11.7329 55.3688 10.7558 54.998 9.86861C54.6273 8.9814 54.0024 8.22364 53.202 7.69068C52.4017 7.15771 51.4616 6.87334 50.5 6.87334C49.5384 6.87334 48.5983 7.15771 47.798 7.69068C46.9976 8.22364 46.3727 8.9814 46.002 9.86861C45.6312 10.7558 45.5311 11.7329 45.7142 12.6769C45.8974 13.6208 46.3556 14.4896 47.0313 15.1737C45.9711 15.6914 45.0417 16.4419 44.3125 17.3694C43.3966 16.2083 42.8261 14.8129 42.6664 13.3427C42.5067 11.8725 42.7641 10.3871 43.4093 9.05644C44.0544 7.72578 45.0612 6.60366 46.3144 5.81855C47.5676 5.03343 49.0165 4.61703 50.4953 4.61703C51.9741 4.61703 53.4231 5.03343 54.6762 5.81855C55.9294 6.60366 56.9362 7.72578 57.5814 9.05644C58.2265 10.3871 58.484 11.8725 58.3242 13.3427C58.1645 14.8129 57.594 16.2083 56.6781 17.3694H56.6875Z" fill="black"/>
<defs>
<clipPath id="clip0_20_22">
<rect width="24" height="24" fill="white" transform="translate(0.5 0.5)"/>
</clipPath>
</defs>
</svg>
